# xmcd
#
# Track frame offsets:
#	150
#	12174
#	23802
#	40627
#	51423
#	63884
#	74684
#	87822
#	101177
#	114709
#	130951
#	142446
#
# Disc length: 2070 seconds
#
# Revision: 0
# Processed by: cddbd v1.5.2PL0 Copyright (c) Steve Scherf et al.
# Submitted via: dBpowerAMP V4.0
#
DISCID=b008140c
DTITLE=Metro - Metro Goes Country
DYEAR=1900
DGENRE=Comedy
TTITLE0=Fowl Supper
TTITLE1=Cronie From Balgonie
TTITLE2=Livestock 109
TTITLE3=Six Weaks On Da Road
TTITLE4=Balers 4 Sail Or Rant
TTITLE5=Deer Uncle Fred
TTITLE6=I Won't Go Drinkin' Wit You Nik
TTITLE7=Regrease Me
TTITLE8=My Massey 44
TTITLE9=Big Steve
TTITLE10=Don't Take The Truck To Town
TTITLE11=Movin' On
EXTD=A local artist from Saskatchewan. This is a re-issue of an album that was released around 1979 - 1980
EXTT0=
EXTT1=
EXTT2=
EXTT3=
EXTT4=
EXTT5=
EXTT6=
EXTT7=
EXTT8=
EXTT9=
EXTT10=
EXTT11=
PLAYORDER=
